<svg xmlns="http://www.w3.org/2000/svg" xmlns:xlink="http://www.w3.org/1999/xlink" width="100" zoomAndPan="magnify" viewBox="0 0 75 30.000001" height="40" preserveAspectRatio="xMidYMid meet" version="1.0"><defs><g/></defs><g fill="#fef5e4" fill-opacity="1"><g transform="translate(5.054182, 19.959679)"><g><path d="M 15.453125 -3.375 L 17.8125 -10.109375 C 18.082031 -10.878906 18.21875 -11.457031 18.21875 -11.84375 C 18.21875 -12.207031 18.09375 -12.441406 17.84375 -12.546875 C 17.59375 -12.660156 17.207031 -12.71875 16.6875 -12.71875 L 16.6875 -13.421875 L 21.640625 -13.421875 L 21.640625 -12.71875 C 21.191406 -12.71875 20.789062 -12.609375 20.4375 -12.390625 C 20.082031 -12.179688 19.816406 -11.820312 19.640625 -11.3125 L 15.4375 0.171875 L 13.890625 0.171875 L 10.859375 -9.03125 L 7.40625 0.171875 L 5.953125 0.171875 L 2.265625 -10 C 2.046875 -10.59375 1.84375 -11.066406 1.65625 -11.421875 C 1.46875 -11.785156 1.269531 -12.0625 1.0625 -12.25 C 0.851562 -12.4375 0.625 -12.554688 0.375 -12.609375 C 0.132812 -12.671875 -0.148438 -12.703125 -0.484375 -12.703125 L -0.484375 -13.421875 L 6.09375 -13.421875 L 6.09375 -12.703125 C 5.5 -12.703125 5.09375 -12.644531 4.875 -12.53125 C 4.65625 -12.425781 4.546875 -12.242188 4.546875 -11.984375 C 4.546875 -11.890625 4.550781 -11.796875 4.5625 -11.703125 C 4.570312 -11.617188 4.59375 -11.519531 4.625 -11.40625 C 4.664062 -11.300781 4.710938 -11.164062 4.765625 -11 C 4.816406 -10.84375 4.890625 -10.644531 4.984375 -10.40625 L 7.421875 -3.375 L 10.25 -11.078125 C 10.125 -11.390625 10.003906 -11.644531 9.890625 -11.84375 C 9.773438 -12.039062 9.640625 -12.195312 9.484375 -12.3125 C 9.328125 -12.425781 9.148438 -12.507812 8.953125 -12.5625 C 8.753906 -12.613281 8.515625 -12.660156 8.234375 -12.703125 L 8.234375 -13.421875 L 14.390625 -13.421875 L 14.390625 -12.703125 C 13.898438 -12.703125 13.539062 -12.640625 13.3125 -12.515625 C 13.082031 -12.390625 12.96875 -12.15625 12.96875 -11.8125 C 12.96875 -11.632812 12.992188 -11.429688 13.046875 -11.203125 C 13.097656 -10.972656 13.171875 -10.707031 13.265625 -10.40625 Z M 15.453125 -3.375 "/></g></g></g><g fill="#fef5e4" fill-opacity="1"><g transform="translate(26.201214, 19.959679)"><g><path d="M 4.484375 -2.859375 C 4.484375 -2.390625 4.5 -2.015625 4.53125 -1.734375 C 4.5625 -1.460938 4.628906 -1.25 4.734375 -1.09375 C 4.835938 -0.945312 4.988281 -0.847656 5.1875 -0.796875 C 5.382812 -0.742188 5.65625 -0.710938 6 -0.703125 L 6 0 L 0.5 0 L 0.5 -0.703125 C 0.832031 -0.710938 1.097656 -0.75 1.296875 -0.8125 C 1.503906 -0.875 1.660156 -0.976562 1.765625 -1.125 C 1.878906 -1.269531 1.957031 -1.472656 2 -1.734375 C 2.039062 -1.992188 2.0625 -2.328125 2.0625 -2.734375 L 2.0625 -4.875 C 2.0625 -5.550781 2.046875 -6.101562 2.015625 -6.53125 C 1.992188 -6.96875 1.96875 -7.269531 1.9375 -7.4375 C 1.875 -7.726562 1.738281 -7.921875 1.53125 -8.015625 C 1.332031 -8.109375 0.96875 -8.15625 0.4375 -8.15625 L 0.4375 -8.75 L 4.484375 -9.40625 Z M 1.921875 -13.09375 C 1.921875 -13.476562 2.050781 -13.800781 2.3125 -14.0625 C 2.570312 -14.320312 2.890625 -14.453125 3.265625 -14.453125 C 3.640625 -14.453125 3.957031 -14.320312 4.21875 -14.0625 C 4.476562 -13.800781 4.609375 -13.476562 4.609375 -13.09375 C 4.609375 -12.726562 4.476562 -12.414062 4.21875 -12.15625 C 3.957031 -11.894531 3.640625 -11.765625 3.265625 -11.765625 C 2.890625 -11.765625 2.570312 -11.894531 2.3125 -12.15625 C 2.050781 -12.414062 1.921875 -12.726562 1.921875 -13.09375 Z M 1.921875 -13.09375 "/></g></g></g><g fill="#fef5e4" fill-opacity="1"><g transform="translate(32.489579, 19.959679)"><g><path d="M 8.375 -1.109375 L 8.3125 -1.109375 C 7.507812 -0.253906 6.46875 0.171875 5.1875 0.171875 C 4.53125 0.171875 3.925781 0.0546875 3.375 -0.171875 C 2.820312 -0.398438 2.34375 -0.722656 1.9375 -1.140625 C 1.539062 -1.566406 1.226562 -2.066406 1 -2.640625 C 0.78125 -3.210938 0.671875 -3.847656 0.671875 -4.546875 C 0.671875 -5.242188 0.785156 -5.890625 1.015625 -6.484375 C 1.242188 -7.078125 1.550781 -7.585938 1.9375 -8.015625 C 2.332031 -8.453125 2.796875 -8.789062 3.328125 -9.03125 C 3.867188 -9.28125 4.457031 -9.40625 5.09375 -9.40625 C 5.664062 -9.40625 6.175781 -9.316406 6.625 -9.140625 C 7.070312 -8.972656 7.46875 -8.679688 7.8125 -8.265625 L 7.875 -8.265625 L 7.875 -9.734375 C 7.875 -10.421875 7.863281 -11.007812 7.84375 -11.5 C 7.832031 -12 7.804688 -12.320312 7.765625 -12.46875 C 7.710938 -12.71875 7.535156 -12.894531 7.234375 -13 C 6.941406 -13.113281 6.488281 -13.171875 5.875 -13.171875 L 5.875 -13.765625 L 10.28125 -14.453125 L 10.28125 -4.5 C 10.28125 -3.625 10.285156 -2.953125 10.296875 -2.484375 C 10.316406 -2.015625 10.351562 -1.65625 10.40625 -1.40625 C 10.425781 -1.257812 10.457031 -1.140625 10.5 -1.046875 C 10.550781 -0.953125 10.625 -0.878906 10.71875 -0.828125 C 10.8125 -0.773438 10.9375 -0.738281 11.09375 -0.71875 C 11.25 -0.707031 11.445312 -0.703125 11.6875 -0.703125 L 11.6875 -0.015625 L 8.375 0.171875 Z M 7.84375 -5 C 7.84375 -5.4375 7.796875 -5.84375 7.703125 -6.21875 C 7.609375 -6.601562 7.46875 -6.941406 7.28125 -7.234375 C 7.070312 -7.566406 6.804688 -7.820312 6.484375 -8 C 6.160156 -8.175781 5.8125 -8.265625 5.4375 -8.265625 C 4.75 -8.265625 4.222656 -7.945312 3.859375 -7.3125 C 3.503906 -6.6875 3.328125 -5.773438 3.328125 -4.578125 C 3.328125 -3.367188 3.503906 -2.4375 3.859375 -1.78125 C 4.222656 -1.132812 4.742188 -0.8125 5.421875 -0.8125 C 5.804688 -0.8125 6.171875 -0.910156 6.515625 -1.109375 C 6.859375 -1.304688 7.144531 -1.578125 7.375 -1.921875 C 7.53125 -2.171875 7.644531 -2.484375 7.71875 -2.859375 C 7.800781 -3.242188 7.84375 -3.734375 7.84375 -4.328125 Z M 7.84375 -5 "/></g></g></g><g fill="#fef5e4" fill-opacity="1"><g transform="translate(44.369543, 19.959679)"><g><path d="M 5 2.734375 C 4.875 2.992188 4.710938 3.234375 4.515625 3.453125 C 4.328125 3.671875 4.113281 3.859375 3.875 4.015625 C 3.632812 4.171875 3.382812 4.296875 3.125 4.390625 C 2.875 4.484375 2.625 4.53125 2.375 4.53125 C 1.988281 4.53125 1.675781 4.4375 1.4375 4.25 C 1.207031 4.0625 1.09375 3.8125 1.09375 3.5 C 1.09375 3.207031 1.191406 2.976562 1.390625 2.8125 C 1.597656 2.65625 1.929688 2.5625 2.390625 2.53125 C 3.421875 2.445312 4.085938 2.117188 4.390625 1.546875 L 4.859375 0.640625 L 1.78125 -6.984375 C 1.632812 -7.316406 1.507812 -7.582031 1.40625 -7.78125 C 1.3125 -7.976562 1.207031 -8.132812 1.09375 -8.25 C 0.976562 -8.363281 0.84375 -8.4375 0.6875 -8.46875 C 0.539062 -8.5 0.359375 -8.519531 0.140625 -8.53125 L 0.140625 -9.234375 L 5.421875 -9.234375 L 5.421875 -8.53125 C 4.960938 -8.53125 4.644531 -8.488281 4.46875 -8.40625 C 4.289062 -8.320312 4.203125 -8.160156 4.203125 -7.921875 C 4.203125 -7.828125 4.210938 -7.71875 4.234375 -7.59375 C 4.265625 -7.476562 4.304688 -7.359375 4.359375 -7.234375 L 6.125 -2.140625 L 6.203125 -2.140625 L 7.703125 -5.546875 C 7.847656 -5.898438 7.972656 -6.195312 8.078125 -6.4375 C 8.179688 -6.675781 8.257812 -6.878906 8.3125 -7.046875 C 8.363281 -7.210938 8.398438 -7.347656 8.421875 -7.453125 C 8.453125 -7.554688 8.46875 -7.660156 8.46875 -7.765625 C 8.46875 -8.066406 8.382812 -8.269531 8.21875 -8.375 C 8.050781 -8.476562 7.707031 -8.53125 7.1875 -8.53125 L 7.1875 -9.234375 L 11.390625 -9.234375 L 11.390625 -8.53125 C 11.160156 -8.53125 10.960938 -8.5 10.796875 -8.4375 C 10.640625 -8.375 10.472656 -8.242188 10.296875 -8.046875 C 10.128906 -7.847656 9.941406 -7.550781 9.734375 -7.15625 C 9.535156 -6.769531 9.285156 -6.257812 8.984375 -5.625 Z M 5 2.734375 "/></g></g></g><g fill="#fef5e4" fill-opacity="1"><g transform="translate(55.413383, 19.959679)"><g><path d="M 6 -4.96875 C 5.019531 -4.519531 4.28125 -4.109375 3.78125 -3.734375 C 3.289062 -3.359375 3.046875 -2.96875 3.046875 -2.5625 C 3.046875 -2.226562 3.140625 -1.960938 3.328125 -1.765625 C 3.515625 -1.566406 3.75 -1.46875 4.03125 -1.46875 C 4.300781 -1.46875 4.554688 -1.515625 4.796875 -1.609375 C 5.046875 -1.710938 5.257812 -1.84375 5.4375 -2 C 5.613281 -2.164062 5.75 -2.359375 5.84375 -2.578125 C 5.945312 -2.804688 6 -3.050781 6 -3.3125 Z M 6 -5.890625 L 6 -6.625 C 6 -7.289062 5.878906 -7.773438 5.640625 -8.078125 C 5.398438 -8.390625 5.03125 -8.546875 4.53125 -8.546875 C 4.195312 -8.546875 3.941406 -8.457031 3.765625 -8.28125 C 3.585938 -8.101562 3.425781 -7.804688 3.28125 -7.390625 C 3.175781 -7.097656 3.023438 -6.867188 2.828125 -6.703125 C 2.640625 -6.546875 2.375 -6.46875 2.03125 -6.46875 C 1.707031 -6.46875 1.457031 -6.566406 1.28125 -6.765625 C 1.113281 -6.960938 1.03125 -7.238281 1.03125 -7.59375 C 1.03125 -8.15625 1.332031 -8.597656 1.9375 -8.921875 C 2.550781 -9.242188 3.472656 -9.40625 4.703125 -9.40625 C 6.003906 -9.40625 6.929688 -9.171875 7.484375 -8.703125 C 8.046875 -8.234375 8.328125 -7.445312 8.328125 -6.34375 L 8.328125 -2.53125 C 8.328125 -1.539062 8.523438 -1.046875 8.921875 -1.046875 C 9.140625 -1.046875 9.34375 -1.117188 9.53125 -1.265625 L 9.796875 -0.765625 C 9.628906 -0.472656 9.375 -0.242188 9.03125 -0.078125 C 8.6875 0.0859375 8.300781 0.171875 7.875 0.171875 C 7.34375 0.171875 6.9375 0.0078125 6.65625 -0.3125 C 6.375 -0.632812 6.234375 -1.09375 6.234375 -1.6875 L 6.15625 -1.6875 C 5.8125 -1.082031 5.375 -0.625 4.84375 -0.3125 C 4.3125 0 3.703125 0.15625 3.015625 0.15625 C 2.285156 0.15625 1.695312 -0.046875 1.25 -0.453125 C 0.8125 -0.867188 0.59375 -1.410156 0.59375 -2.078125 C 0.59375 -2.585938 0.816406 -3.066406 1.265625 -3.515625 C 1.722656 -3.960938 2.476562 -4.398438 3.53125 -4.828125 Z M 6 -5.890625 "/></g></g></g><g fill="#fef5e4" fill-opacity="1"><g transform="translate(65.412061, 19.959679)"><g><path d="M 0.9375 -1.109375 C 0.9375 -1.484375 1.0625 -1.800781 1.3125 -2.0625 C 1.5625 -2.320312 1.875 -2.453125 2.25 -2.453125 C 2.632812 -2.453125 2.953125 -2.320312 3.203125 -2.0625 C 3.460938 -1.800781 3.59375 -1.484375 3.59375 -1.109375 C 3.59375 -0.753906 3.460938 -0.453125 3.203125 -0.203125 C 2.953125 0.046875 2.632812 0.171875 2.25 0.171875 C 1.875 0.171875 1.5625 0.046875 1.3125 -0.203125 C 1.0625 -0.453125 0.9375 -0.753906 0.9375 -1.109375 Z M 0.9375 -1.109375 "/></g></g></g></svg>